<svg xmlns="http://www.w3.org/2000/svg" viewBox="0 0 64 64" role="img" aria-label="Astraeus Dynamics">
  <defs>
    <linearGradient id="bg" x1="0" y1="0" x2="1" y2="1">
      <stop offset="0%" stop-color="#0d2d4a"/>
      <stop offset="100%" stop-color="#061426"/>
    </linearGradient>
    <linearGradient id="accent" x1="0" y1="0" x2="1" y2="1">
      <stop offset="0%" stop-color="#f3cf86"/>
      <stop offset="100%" stop-color="#d8a13f"/>
    </linearGradient>
  </defs>
  <rect x="1" y="1" width="62" height="62" rx="14" fill="url(#bg)" stroke="#204768" stroke-width="1.5"/>
  <path d="M13 47L26 16h6l13 31h-7l-2.7-7H22.7L20 47h-7zm12.1-13h8.7L29.4 22l-4.3 12z" fill="#eaf2fb"/>
  <path d="M46 18h4c5.6 0 10 4.4 10 10v8c0 5.6-4.4 10-10 10h-4V18zm4 6v16c2.2 0 4-1.8 4-4V28c0-2.2-1.8-4-4-4z" fill="url(#accent)"/>
</svg>
